<mxfile host="app.diagrams.net" modified="2022-06-29T10:49:08.043Z" agent="5.0 (Macintosh; Intel Mac OS X 10_15_7) AppleWebKit/605.1.15 (KHTML, like Gecko) Version/15.5 Safari/605.1.15" etag="Ul8XbLvdbjnUQnfSytM4" version="20.0.3" type="github">
  <diagram id="K0u1ulP-ULS7Q2HhCe41" name="Page-1">
    <mxGraphModel dx="944" dy="568" grid="1" gridSize="10" guides="1" tooltips="1" connect="1" arrows="1" fold="1" page="1" pageScale="1" pageWidth="1169" pageHeight="827" math="0" shadow="0">
      <root>
        <mxCell id="0" />
        <mxCell id="1" parent="0" />
        <mxCell id="nr1RQSjJcrJyGczmWqtb-1" value="DevOps Access Request" style="rounded=1;whiteSpace=wrap;html=1;fillColor=#f5f5f5;fontColor=#333333;strokeColor=#666666;" vertex="1" parent="1">
          <mxGeometry x="246.5" y="380" width="120" height="60" as="geometry" />
        </mxCell>
        <mxCell id="nr1RQSjJcrJyGczmWqtb-2" value="" style="aspect=fixed;perimeter=ellipsePerimeter;html=1;align=center;shadow=0;dashed=0;spacingTop=3;image;image=img/lib/active_directory/users.svg;" vertex="1" parent="1">
          <mxGeometry x="136.5" y="385" width="33" height="50" as="geometry" />
        </mxCell>
        <mxCell id="nr1RQSjJcrJyGczmWqtb-3" value="Service-now" style="text;html=1;strokeColor=none;fillColor=none;align=center;verticalAlign=middle;whiteSpace=wrap;rounded=0;" vertex="1" parent="1">
          <mxGeometry x="236.5" y="446" width="140" height="30" as="geometry" />
        </mxCell>
        <mxCell id="nr1RQSjJcrJyGczmWqtb-4" value="" style="endArrow=classic;html=1;rounded=0;" edge="1" parent="1">
          <mxGeometry width="50" height="50" relative="1" as="geometry">
            <mxPoint x="191.5" y="410" as="sourcePoint" />
            <mxPoint x="231.5" y="409.28999999999996" as="targetPoint" />
          </mxGeometry>
        </mxCell>
        <mxCell id="nr1RQSjJcrJyGczmWqtb-5" value="users" style="text;html=1;strokeColor=none;fillColor=none;align=center;verticalAlign=middle;whiteSpace=wrap;rounded=0;" vertex="1" parent="1">
          <mxGeometry x="123" y="430" width="60" height="30" as="geometry" />
        </mxCell>
        <mxCell id="nr1RQSjJcrJyGczmWqtb-6" value="UI" style="rounded=1;whiteSpace=wrap;html=1;fillColor=#dae8fc;strokeColor=#6c8ebf;" vertex="1" parent="1">
          <mxGeometry x="680.5" y="380" width="120" height="60" as="geometry" />
        </mxCell>
        <mxCell id="nr1RQSjJcrJyGczmWqtb-7" value="" style="endArrow=classic;html=1;rounded=0;" edge="1" parent="1">
          <mxGeometry width="50" height="50" relative="1" as="geometry">
            <mxPoint x="398.5" y="410" as="sourcePoint" />
            <mxPoint x="438.5" y="409.2900000000001" as="targetPoint" />
          </mxGeometry>
        </mxCell>
        <mxCell id="nr1RQSjJcrJyGczmWqtb-8" value="SSP" style="text;html=1;strokeColor=none;fillColor=none;align=center;verticalAlign=middle;whiteSpace=wrap;rounded=0;" vertex="1" parent="1">
          <mxGeometry x="710.5" y="444" width="60" height="30" as="geometry" />
        </mxCell>
        <mxCell id="nr1RQSjJcrJyGczmWqtb-10" value="Task" style="rounded=1;whiteSpace=wrap;html=1;fillColor=#f5f5f5;fontColor=#333333;strokeColor=#666666;" vertex="1" parent="1">
          <mxGeometry x="456.5" y="380" width="120" height="60" as="geometry" />
        </mxCell>
        <mxCell id="nr1RQSjJcrJyGczmWqtb-11" value="Service-now" style="text;html=1;strokeColor=none;fillColor=none;align=center;verticalAlign=middle;whiteSpace=wrap;rounded=0;" vertex="1" parent="1">
          <mxGeometry x="446.5" y="446" width="140" height="30" as="geometry" />
        </mxCell>
        <mxCell id="nr1RQSjJcrJyGczmWqtb-12" value="Manager Approval" style="text;html=1;strokeColor=none;fillColor=none;align=center;verticalAlign=middle;whiteSpace=wrap;rounded=0;" vertex="1" parent="1">
          <mxGeometry x="386.5" y="350" width="60" height="30" as="geometry" />
        </mxCell>
        <mxCell id="nr1RQSjJcrJyGczmWqtb-13" value="" style="endArrow=classic;html=1;rounded=0;" edge="1" parent="1">
          <mxGeometry width="50" height="50" relative="1" as="geometry">
            <mxPoint x="606.4999999999998" y="410" as="sourcePoint" />
            <mxPoint x="646.4999999999998" y="409.2900000000001" as="targetPoint" />
          </mxGeometry>
        </mxCell>
        <mxCell id="nr1RQSjJcrJyGczmWqtb-14" value="" style="rounded=1;whiteSpace=wrap;html=1;fontFamily=Helvetica;fontSize=12;align=center;strokeColor=#b85450;fillColor=#f8cecc;" vertex="1" parent="1">
          <mxGeometry x="906.5" y="386" width="120" height="60" as="geometry" />
        </mxCell>
        <mxCell id="nr1RQSjJcrJyGczmWqtb-15" value="" style="rounded=1;whiteSpace=wrap;html=1;fontFamily=Helvetica;fontSize=12;fontColor=default;align=center;strokeColor=#d6b656;fillColor=#fff2cc;" vertex="1" parent="1">
          <mxGeometry x="916.5" y="396" width="120" height="60" as="geometry" />
        </mxCell>
        <mxCell id="nr1RQSjJcrJyGczmWqtb-16" value="" style="rounded=1;whiteSpace=wrap;html=1;fontFamily=Helvetica;fontSize=12;align=center;strokeColor=#82b366;fillColor=#d5e8d4;" vertex="1" parent="1">
          <mxGeometry x="926.5" y="406" width="120" height="60" as="geometry" />
        </mxCell>
        <mxCell id="nr1RQSjJcrJyGczmWqtb-17" value="Tools" style="text;html=1;strokeColor=none;fillColor=none;align=center;verticalAlign=middle;whiteSpace=wrap;rounded=0;" vertex="1" parent="1">
          <mxGeometry x="966.5" y="466" width="60" height="30" as="geometry" />
        </mxCell>
        <mxCell id="nr1RQSjJcrJyGczmWqtb-18" value="" style="endArrow=classic;html=1;rounded=0;" edge="1" parent="1">
          <mxGeometry width="50" height="50" relative="1" as="geometry">
            <mxPoint x="826.4999999999998" y="406.71000000000004" as="sourcePoint" />
            <mxPoint x="866.4999999999998" y="406.0000000000001" as="targetPoint" />
          </mxGeometry>
        </mxCell>
        <mxCell id="nr1RQSjJcrJyGczmWqtb-19" value="" style="endArrow=classic;html=1;rounded=0;" edge="1" parent="1">
          <mxGeometry width="50" height="50" relative="1" as="geometry">
            <mxPoint x="866.5" y="425" as="sourcePoint" />
            <mxPoint x="826.5" y="425.28999999999996" as="targetPoint" />
          </mxGeometry>
        </mxCell>
        <mxCell id="nr1RQSjJcrJyGczmWqtb-20" value="Status" style="text;html=1;strokeColor=none;fillColor=none;align=center;verticalAlign=middle;whiteSpace=wrap;rounded=0;" vertex="1" parent="1">
          <mxGeometry x="821.5" y="431" width="60" height="30" as="geometry" />
        </mxCell>
        <mxCell id="nr1RQSjJcrJyGczmWqtb-22" value="" style="endArrow=classic;html=1;rounded=0;" edge="1" parent="1">
          <mxGeometry width="50" height="50" relative="1" as="geometry">
            <mxPoint x="646.5" y="429.57" as="sourcePoint" />
            <mxPoint x="606.5" y="429.85999999999996" as="targetPoint" />
          </mxGeometry>
        </mxCell>
        <mxCell id="nr1RQSjJcrJyGczmWqtb-23" value="Closed" style="text;html=1;strokeColor=none;fillColor=none;align=center;verticalAlign=middle;whiteSpace=wrap;rounded=0;" vertex="1" parent="1">
          <mxGeometry x="596.5" y="430" width="60" height="30" as="geometry" />
        </mxCell>
      </root>
    </mxGraphModel>
  </diagram>
</mxfile>
